<svg width="1440" height="338" viewBox="0 0 1440 338" fill="none" xmlns="http://www.w3.org/2000/svg">
<path d="M0 42.47L34.4 51.649C68.8 60.691 137.6 79.049 206.08 92.201C274.72 105.49 342.88 113.71 411.52 113.299C480 112.751 548.8 103.709 617.28 104.531C685.92 105.49 754.08 116.45 822.72 121.245C891.2 126.04 960 124.67 1028.48 116.724C1097.12 108.641 1165.28 94.119 1233.92 73.569C1302.4 53.019 1371.2 26.441 1405.6 13.289L1440 0V337.02H1405.6C1371.2 337.02 1302.4 337.02 1233.92 337.02C1165.28 337.02 1097.12 337.02 1028.48 337.02C960 337.02 891.2 337.02 822.72 337.02C754.08 337.02 685.92 337.02 617.28 337.02C548.8 337.02 480 337.02 411.52 337.02C342.88 337.02 274.72 337.02 206.08 337.02C137.6 337.02 68.8 337.02 34.4 337.02H0V42.47Z" fill="#CB69C1"/>
</svg>
