<svg width="1440" height="280" viewBox="0 0 1440 280" fill="none" xmlns="http://www.w3.org/2000/svg">
<path d="M0 0.909912L34.4 3.64991C68.8 6.38991 137.6 11.8699 206.08 10.7739C274.72 9.54093 342.88 1.86893 411.52 3.23893C480 4.60893 548.8 15.0209 617.28 29.9539C685.92 44.7499 754.08 63.9299 822.72 61.6009C891.2 59.4089 960 35.5709 1028.48 32.6939C1097.12 29.6799 1165.28 47.4899 1233.92 52.9699C1302.4 58.4499 1371.2 51.5999 1405.6 48.1749L1440 44.7499V279.02H1405.6C1371.2 279.02 1302.4 279.02 1233.92 279.02C1165.28 279.02 1097.12 279.02 1028.48 279.02C960 279.02 891.2 279.02 822.72 279.02C754.08 279.02 685.92 279.02 617.28 279.02C548.8 279.02 480 279.02 411.52 279.02C342.88 279.02 274.72 279.02 206.08 279.02C137.6 279.02 68.8 279.02 34.4 279.02H0V0.909912Z" fill="#B66CC7"/>
</svg>
