<svg width="1440" height="209" viewBox="0 0 1440 209" fill="none" xmlns="http://www.w3.org/2000/svg">
<path d="M0 24.4399L34.4 32.6599C68.8 40.8799 137.6 57.3199 206.08 54.1689C274.72 50.8809 342.88 28.1389 411.52 29.9199C480 31.7009 548.8 58.2789 617.28 58.2789C685.92 58.2789 754.08 31.7009 822.72 15.9459C891.2 0.190852 960 -4.74112 1028.48 7.58889C1097.12 19.9189 1165.28 49.5109 1233.92 61.7039C1302.4 73.7599 1371.2 68.2799 1405.6 65.5399L1440 62.7999V208.02H1405.6C1371.2 208.02 1302.4 208.02 1233.92 208.02C1165.28 208.02 1097.12 208.02 1028.48 208.02C960 208.02 891.2 208.02 822.72 208.02C754.08 208.02 685.92 208.02 617.28 208.02C548.8 208.02 480 208.02 411.52 208.02C342.88 208.02 274.72 208.02 206.08 208.02C137.6 208.02 68.8 208.02 34.4 208.02H0V24.4399Z" fill="#9F6ECB"/>
</svg>
