<svg width="1440" height="148" viewBox="0 0 1440 148" fill="none" xmlns="http://www.w3.org/2000/svg">
<path d="M0 48.3799L34.4 42.4889C68.8 36.4609 137.6 24.6789 206.08 15.4999C274.72 6.32089 342.88 0.0188839 411.52 7.27988C480 14.5409 548.8 35.6389 617.28 40.5709C685.92 45.6399 754.08 34.6799 822.72 32.8989C891.2 30.9809 960 38.3789 1028.48 32.2139C1097.12 26.0489 1165.28 6.32087 1233.92 1.52587C1302.4 -3.26913 1371.2 6.86887 1405.6 11.8009L1440 16.8699V147.02H1405.6C1371.2 147.02 1302.4 147.02 1233.92 147.02C1165.28 147.02 1097.12 147.02 1028.48 147.02C960 147.02 891.2 147.02 822.72 147.02C754.08 147.02 685.92 147.02 617.28 147.02C548.8 147.02 480 147.02 411.52 147.02C342.88 147.02 274.72 147.02 206.08 147.02C137.6 147.02 68.8 147.02 34.4 147.02H0V48.3799Z" fill="#8670CC"/>
</svg>
