<svg width="1440" height="91" viewBox="0 0 1440 91" fill="none" xmlns="http://www.w3.org/2000/svg">
<path d="M0 32.4801L34.4 35.2201C68.8 37.9601 137.6 43.4401 206.08 38.9191C274.72 34.2611 342.88 19.7391 411.52 11.2451C480 2.75108 548.8 0.559085 617.28 0.970085C685.92 1.38108 754.08 4.66907 822.72 4.12107C891.2 3.71007 960 -0.399898 1028.48 6.0391C1097.12 12.3411 1165.28 29.3291 1233.92 30.8361C1302.4 32.4801 1371.2 18.7801 1405.6 11.9301L1440 5.08008V90.0201H1405.6C1371.2 90.0201 1302.4 90.0201 1233.92 90.0201C1165.28 90.0201 1097.12 90.0201 1028.48 90.0201C960 90.0201 891.2 90.0201 822.72 90.0201C754.08 90.0201 685.92 90.0201 617.28 90.0201C548.8 90.0201 480 90.0201 411.52 90.0201C342.88 90.0201 274.72 90.0201 206.08 90.0201C137.6 90.0201 68.8 90.0201 34.4 90.0201H0V32.4801Z" fill="#6C72CB"/>
</svg>
