<svg width="17" height="29" viewBox="0 0 17 29" fill="none" xmlns="http://www.w3.org/2000/svg">
<path d="M10.5279 8.92056C10.5279 6.91972 11.5283 6.91972 12.5287 6.91972H13.7292C13.9297 6.92241 14.1286 6.88492 14.3143 6.80945C14.5 6.73399 14.6687 6.62208 14.8105 6.48033C14.9522 6.33859 15.0641 6.16988 15.1396 5.98418C15.2151 5.79847 15.2525 5.59952 15.2499 5.39908V3.5183C15.2499 3.31691 15.2099 3.11753 15.1322 2.93172C15.0546 2.74591 14.9408 2.57738 14.7974 2.43591C14.6541 2.29444 14.4841 2.18285 14.2973 2.10762C14.1105 2.03239 13.9106 1.99501 13.7092 1.99766L10.868 1.95765C10.0407 1.92565 9.21636 2.07354 8.45179 2.39112C7.68721 2.7087 7.00066 3.1884 6.4395 3.79711C5.87834 4.40582 5.45595 5.12905 5.20148 5.91687C4.94701 6.7047 4.86651 7.53836 4.96555 8.36032V11.2615H3.38489C2.9816 11.2615 2.59482 11.4217 2.30964 11.7069C2.02447 11.9921 1.86426 12.3789 1.86426 12.7822V14.663C1.86426 15.0663 2.02447 15.453 2.30964 15.7382C2.59482 16.0234 2.9816 16.1836 3.38489 16.1836H4.96555V26.9281C4.96555 27.1934 5.07096 27.4479 5.25857 27.6355C5.44619 27.8231 5.70065 27.9285 5.96597 27.9285H9.58749C9.84228 27.9132 10.0816 27.8011 10.2564 27.6151C10.4312 27.4291 10.5283 27.1833 10.5279 26.9281V16.1836H12.2886C12.6919 16.1836 13.0787 16.0234 13.3639 15.7382C13.649 15.453 13.8093 15.0663 13.8093 14.663V12.7822C13.8093 12.3789 13.649 11.9921 13.3639 11.7069C13.0787 11.4217 12.6919 11.2615 12.2886 11.2615H10.5279V8.92056Z" stroke="#EEEDF0" stroke-width="2.2" stroke-linecap="round" stroke-linejoin="round"/>
</svg>
