<svg width="26" height="26" viewBox="0 0 26 26" fill="none" xmlns="http://www.w3.org/2000/svg">
<path fill-rule="evenodd" clip-rule="evenodd" d="M25.5611 13C25.5611 16.3936 25.5464 16.8184 25.4877 18.1514C25.429 19.4795 25.2138 20.3877 24.9055 21.1836C24.2548 22.8633 22.9241 24.1914 21.2411 24.8408C20.4486 25.1484 19.5337 25.3633 18.203 25.4219C16.8674 25.4805 16.4417 25.4951 13.0415 25.4951C9.64135 25.4951 9.21571 25.4805 7.88009 25.4219C6.54937 25.3633 5.63939 25.1484 4.84193 24.8408C4.01023 24.5283 3.25191 24.0352 2.62569 23.4004C1.98968 22.7754 1.49555 22.0234 1.17755 21.1836C0.869331 20.3926 0.654067 19.4795 0.595358 18.1514C0.53665 16.8184 0.521973 16.3936 0.521973 13C0.521973 9.60645 0.53665 9.18164 0.600251 7.84375C0.658959 6.51562 0.874223 5.60742 1.18244 4.81152C1.49555 3.98145 1.98968 3.22461 2.62569 2.59961C3.25191 1.95996 4.00534 1.47168 4.84683 1.1543C5.63939 0.84668 6.55426 0.631836 7.88499 0.573242C9.2206 0.514648 9.64624 0.5 13.0464 0.5C16.4466 0.5 16.8723 0.514648 18.2128 0.578125C19.5435 0.636719 20.4535 0.851562 21.2509 1.15918C22.0826 1.47168 22.841 1.96484 23.4672 2.59961C24.1081 3.22461 24.5973 3.97656 24.9153 4.81641C25.2235 5.60742 25.4388 6.52051 25.4975 7.84863C25.5562 9.18164 25.5611 9.60645 25.5611 13ZM23.3155 13.0098C23.3155 9.6748 23.3008 9.2793 23.2421 7.96094C23.1883 6.74512 22.9828 6.08105 22.8116 5.6416C22.611 5.09961 22.293 4.61133 21.8772 4.20605C21.476 3.79102 20.9819 3.47363 20.4388 3.27344C19.9985 3.10254 19.338 2.89746 18.1149 2.84375C16.7989 2.78516 16.4026 2.77051 13.0562 2.77051C9.71473 2.77051 9.31845 2.78516 7.99751 2.84375C6.77931 2.89746 6.11395 3.10254 5.67364 3.27344C5.13058 3.47363 4.64135 3.79102 4.23528 4.20605C3.81454 4.60645 3.49653 5.09961 3.29595 5.6416C3.12471 6.08105 2.91923 6.74023 2.86542 7.96094C2.80671 9.27441 2.79203 9.6748 2.79203 13.0098C2.79203 16.3447 2.80671 16.7402 2.86542 18.0586C2.91923 19.2744 3.12471 19.9385 3.29595 20.3779C3.49653 20.9199 3.81454 21.4082 4.23039 21.8135C4.63156 22.2285 5.12569 22.5459 5.66874 22.7461C6.10906 22.917 6.76953 23.1221 7.99262 23.1758C9.30866 23.2344 9.70984 23.249 13.0513 23.249C16.3928 23.249 16.7891 23.2344 18.11 23.1758C19.3282 23.1221 19.9936 22.917 20.4339 22.7461C21.5249 22.3262 22.3909 21.4619 22.8116 20.373C22.9828 19.9336 23.1883 19.2744 23.2421 18.0537C23.3008 16.7354 23.3155 16.3447 23.3155 13.0098Z" fill="#EEEDF0"/>
<path fill-rule="evenodd" clip-rule="evenodd" d="M19.4798 13C19.4798 16.5449 16.5982 19.4209 13.0464 19.4209C9.49452 19.4209 6.61292 16.5449 6.61292 13C6.61292 9.45508 9.49452 6.5791 13.0464 6.5791C16.5982 6.5791 19.4798 9.45508 19.4798 13ZM13.0464 17.165C15.3507 17.165 17.2196 15.2998 17.2196 13C17.2196 10.7002 15.3507 8.83496 13.0464 8.83496C10.7421 8.83496 8.87319 10.7002 8.87319 13C8.87319 15.2998 10.7421 17.165 13.0464 17.165Z" fill="#EEEDF0"/>
<path d="M21.2363 6.3252C21.2363 7.15284 20.5641 7.82423 19.7344 7.82423C18.9051 7.82423 18.2324 7.15284 18.2324 6.3252C18.2324 5.49707 18.9051 4.82617 19.7344 4.82617C20.5641 4.82617 21.2363 5.49707 21.2363 6.3252Z" fill="#EEEDF0"/>
</svg>
