<svg width="30" height="26" viewBox="0 0 30 26" fill="none" xmlns="http://www.w3.org/2000/svg">
<path d="M8.57142 18.143C7.04129 19.3448 5.28502 20.2266 3.40714 20.7358C3.2003 20.8109 3.02159 20.9478 2.89529 21.128C2.769 21.3082 2.70125 21.5229 2.70125 21.743C2.70125 21.963 2.769 22.1777 2.89529 22.3579C3.02159 22.5381 3.2003 22.675 3.40714 22.7501C18.2357 28.8358 27.6643 19.4287 26.2286 8.99297L28.6286 4.02155H25.8429C22.3714 -0.24274 13.1571 -0.0284533 14.6786 9.05726C14.6786 9.05726 9.74999 9.93583 3.44999 3.74297C3.30426 3.5991 3.12035 3.5 2.92004 3.45741C2.71972 3.41483 2.5114 3.43054 2.31975 3.5027C2.12809 3.57485 1.96112 3.70042 1.83863 3.86453C1.71613 4.02864 1.64323 4.22443 1.62856 4.42869C0.962419 7.16694 1.29579 10.0531 2.56864 12.5673C3.84149 15.0816 5.97019 17.0588 8.57142 18.143V18.143Z" stroke="#EEEDF0" stroke-width="2.2" stroke-linecap="round" stroke-linejoin="round"/>
</svg>
