<svg width="30" height="24" viewBox="0 0 30 24" fill="none" xmlns="http://www.w3.org/2000/svg">
<path d="M24.6428 1.28564H5.35713C2.99019 1.28564 1.07141 3.20442 1.07141 5.57136V18.4285C1.07141 20.7954 2.99019 22.7142 5.35713 22.7142H24.6428C27.0098 22.7142 28.9286 20.7954 28.9286 18.4285V5.57136C28.9286 3.20442 27.0098 1.28564 24.6428 1.28564Z" stroke="#EEEDF0" stroke-width="2.2" stroke-linecap="round" stroke-linejoin="round"/>
<path d="M11.3785 16.9714V7.97139C11.3741 7.81944 11.4111 7.66915 11.4857 7.5367C11.5603 7.40425 11.6696 7.29465 11.8019 7.21971C11.9341 7.14476 12.0843 7.10731 12.2363 7.11138C12.3882 7.11546 12.5362 7.1609 12.6642 7.24282L20.3785 11.7428C20.5074 11.8184 20.6143 11.9265 20.6886 12.0561C20.7628 12.1858 20.8019 12.3327 20.8019 12.4821C20.8019 12.6315 20.7628 12.7784 20.6886 12.9081C20.6143 13.0378 20.5074 13.1458 20.3785 13.2214L12.6642 17.7214C12.5334 17.797 12.3849 17.8366 12.2337 17.8362C12.0826 17.8359 11.9343 17.7956 11.8038 17.7195C11.6732 17.6433 11.5651 17.534 11.4905 17.4027C11.4158 17.2713 11.3772 17.1225 11.3785 16.9714V16.9714Z" stroke="#EEEDF0" stroke-width="2" stroke-linecap="round" stroke-linejoin="round"/>
</svg>
