<svg width="16" height="26" viewBox="0 0 16 26" fill="none" xmlns="http://www.w3.org/2000/svg">
<path d="M1.13785 1.2346C0.927376 1.44464 0.760391 1.69414 0.646457 1.9688C0.532523 2.24346 0.473877 2.5379 0.473877 2.83526C0.473877 3.13261 0.532523 3.42705 0.646457 3.70171C0.760391 3.97637 0.927376 4.22587 1.13785 4.43592L9.94716 13.2452L1.13785 22.0545C0.713333 22.4791 0.474838 23.0548 0.474838 23.6552C0.474838 24.2556 0.713333 24.8313 1.13785 25.2559C1.56238 25.6804 2.13815 25.9189 2.73851 25.9189C3.33888 25.9189 3.91465 25.6804 4.33917 25.2559L14.7605 14.8345C14.971 14.6245 15.138 14.375 15.2519 14.1003C15.3658 13.8257 15.4245 13.5312 15.4245 13.2339C15.4245 12.9365 15.3658 12.6421 15.2519 12.3674C15.138 12.0928 14.971 11.8433 14.7605 11.6332L4.33917 1.21189C3.47641 0.349125 2.02333 0.349125 1.13785 1.2346Z" fill="#EEEDF0"/>
</svg>
